<?xml version="1.0" encoding="UTF-8" standalone="no"?>
<!-- Created with Inkscape (http://www.inkscape.org/) -->

<svg
   width="66.564049mm"
   height="7.9111562mm"
   viewBox="0 0 66.564049 7.9111561"
   version="1.1"
   id="svg1"
   inkscape:version="1.4 (e7c3feb100, 2024-10-09)"
   sodipodi:docname="logo.svg"
   xmlns:inkscape="http://www.inkscape.org/namespaces/inkscape"
   xmlns:sodipodi="http://sodipodi.sourceforge.net/DTD/sodipodi-0.dtd"
   xmlns="http://www.w3.org/2000/svg"
   xmlns:svg="http://www.w3.org/2000/svg">
  <sodipodi:namedview
     id="namedview1"
     pagecolor="#ffffff"
     bordercolor="#666666"
     borderopacity="1.0"
     inkscape:showpageshadow="2"
     inkscape:pageopacity="0.0"
     inkscape:pagecheckerboard="0"
     inkscape:deskcolor="#d1d1d1"
     inkscape:document-units="mm"
     inkscape:zoom="6.8267467"
     inkscape:cx="163.10844"
     inkscape:cy="41.967281"
     inkscape:window-width="1876"
     inkscape:window-height="1054"
     inkscape:window-x="0"
     inkscape:window-y="0"
     inkscape:window-maximized="1"
     inkscape:current-layer="layer1" />
  <defs
     id="defs1">
    <rect
       x="117.81925"
       y="152.77661"
       width="336.62643"
       height="81.567177"
       id="rect1" />
  </defs>
  <g
     inkscape:label="Ebene 1"
     inkscape:groupmode="layer"
     id="layer1"
     transform="translate(-3.9047955,-48.854161)">
    <path
       style="font-size:10px;line-height:125%;font-family:'Space Mono';-inkscape-font-specification:'Space Mono';text-align:center;letter-spacing:0px;word-spacing:0px;text-anchor:middle;fill:#e500da;fill-opacity:0.700154;stroke-width:0.264583px"
       d="m 4.6988902,55.134161 h 1.8 v -5.56 h -1.74 v -0.72 h 2.52 v 6.28 h 1.8000002 v 0.72 H 4.6988902 Z m 9.7199968,-0.12 h -0.12 q -0.24,0.5 -0.67,0.74 -0.42,0.24 -0.89,0.24 -0.49,0 -0.91,-0.16 -0.42,-0.17 -0.74,-0.49 -0.31,-0.33 -0.49,-0.8 -0.18,-0.47 -0.18,-1.09 v -0.16 q 0,-0.61 0.18,-1.08 0.18,-0.47 0.49,-0.79 0.32,-0.33 0.74,-0.5 0.42,-0.17 0.89,-0.17 0.51,0 0.92,0.23 0.42,0.22 0.66,0.69 h 0.12 v -0.78 h 0.78 v 3.94 q 0,0.3 0.27,0.3 h 0.25 v 0.72 h -0.53 q -0.34,0 -0.56,-0.22 -0.21,-0.22 -0.21,-0.56 z m -1.6,0.24 q 0.35,0 0.64,-0.13 0.3,-0.13 0.51,-0.37 0.21,-0.24 0.33,-0.57 0.12,-0.34 0.12,-0.75 v -0.12 q 0,-0.4 -0.12,-0.73 -0.12,-0.34 -0.34,-0.58 -0.21,-0.24 -0.51,-0.37 -0.29,-0.14 -0.63,-0.14 -0.35,0 -0.64,0.13 -0.29,0.13 -0.51,0.37 -0.21,0.23 -0.33,0.57 -0.12,0.33 -0.12,0.73 v 0.16 q 0,0.85 0.44,1.33 0.45,0.47 1.16,0.47 z m 8.759995,-1.16 q -0.08,0.41 -0.28,0.76 -0.19,0.35 -0.49,0.61 -0.3,0.25 -0.7,0.39 -0.4,0.14 -0.89,0.14 -0.52,0 -0.99,-0.17 -0.46,-0.17 -0.81,-0.49 -0.35,-0.33 -0.56,-0.8 -0.2,-0.47 -0.2,-1.08 v -0.12 q 0,-0.6 0.2,-1.08 0.21,-0.48 0.56,-0.81 0.35,-0.33 0.81,-0.51 0.47,-0.18 0.99,-0.18 0.47,0 0.87,0.14 0.4,0.14 0.7,0.4 0.31,0.25 0.5,0.6 0.2,0.35 0.27,0.76 l -0.78,0.18 q -0.03,-0.26 -0.15,-0.5 -0.11,-0.25 -0.31,-0.43 -0.19,-0.19 -0.47,-0.3 -0.28,-0.11 -0.65,-0.11 -0.36,0 -0.68,0.14 -0.31,0.13 -0.55,0.38 -0.24,0.24 -0.38,0.58 -0.13,0.34 -0.13,0.74 v 0.12 q 0,0.42 0.13,0.76 0.14,0.33 0.38,0.56 0.24,0.23 0.56,0.36 0.32,0.12 0.69,0.12 0.37,0 0.64,-0.11 0.28,-0.12 0.47,-0.3 0.2,-0.19 0.31,-0.43 0.12,-0.24 0.16,-0.5 z m 2.759995,-1.14 h 0.17 l 1.89,-2.06 h 0.96 v 0.06 l -2.06,2.27 v 0.18 l 2.3,2.39 v 0.06 h -0.96 l -2.11,-2.18 h -0.19 v 2.18 h -0.78 v -7 h 0.78 z m 5.619995,2.9 h -0.78 v -7 h 0.78 v 2.94 h 0.12 q 0.23,-0.48 0.64,-0.76 0.42,-0.28 1.02,-0.28 0.81,0 1.31,0.54 0.51,0.53 0.51,1.6 v 2.96 h -0.78 v -2.8 q 0,-0.78 -0.35,-1.17 -0.35,-0.39 -0.95,-0.39 -0.71,0 -1.12,0.49 -0.4,0.48 -0.4,1.29 z m 10.019995,-2.42 q 0,0.62 -0.21,1.1 -0.2,0.47 -0.54,0.8 -0.34,0.32 -0.8,0.49 -0.45,0.17 -0.94,0.17 -0.5,0 -0.95,-0.17 -0.45,-0.17 -0.79,-0.49 -0.34,-0.33 -0.55,-0.8 -0.2,-0.48 -0.2,-1.1 v -0.12 q 0,-0.61 0.2,-1.08 0.21,-0.48 0.55,-0.81 0.35,-0.33 0.8,-0.5 0.45,-0.17 0.94,-0.17 0.49,0 0.94,0.17 0.45,0.17 0.79,0.5 0.35,0.33 0.55,0.81 0.21,0.47 0.21,1.08 z m -2.49,1.82 q 0.36,0 0.66,-0.12 0.31,-0.13 0.54,-0.37 0.23,-0.24 0.36,-0.57 0.13,-0.34 0.13,-0.76 v -0.12 q 0,-0.4 -0.13,-0.73 -0.13,-0.34 -0.36,-0.58 -0.23,-0.24 -0.54,-0.37 -0.31,-0.14 -0.66,-0.14 -0.35,0 -0.66,0.14 -0.31,0.13 -0.54,0.37 -0.23,0.24 -0.36,0.58 -0.13,0.33 -0.13,0.73 v 0.12 q 0,0.42 0.13,0.76 0.13,0.33 0.36,0.57 0.23,0.24 0.53,0.37 0.31,0.12 0.67,0.12 z m 6.879995,0.6 h -1.54 l -1.73,-4.96 h 0.92 l 1.52,4.6 h 0.12 l 1.52,-4.6 h 0.92 z m 3.739995,-2.24 q 0.03,0.74 0.46,1.19 0.43,0.45 1.2,0.45 0.35,0 0.61,-0.08 0.26,-0.08 0.44,-0.22 0.19,-0.14 0.3,-0.32 0.12,-0.19 0.19,-0.4 l 0.74,0.2 q -0.21,0.69 -0.78,1.13 -0.56,0.43 -1.52,0.43 -0.53,0 -0.98,-0.18 -0.44,-0.19 -0.76,-0.53 -0.32,-0.34 -0.5,-0.81 -0.18,-0.47 -0.18,-1.04 v -0.24 q 0,-0.52 0.18,-0.97 0.19,-0.45 0.52,-0.77 0.33,-0.33 0.77,-0.51 0.45,-0.19 0.97,-0.19 0.61,0 1.05,0.23 0.45,0.22 0.73,0.55 0.29,0.33 0.42,0.72 0.14,0.39 0.14,0.72 v 0.64 z m 1.66,-2.12 q -0.33,0 -0.62,0.11 -0.28,0.1 -0.5,0.29 -0.21,0.19 -0.35,0.45 -0.13,0.25 -0.17,0.55 h 3.2 q -0.02,-0.32 -0.16,-0.58 -0.13,-0.26 -0.35,-0.44 -0.21,-0.18 -0.49,-0.28 -0.27,-0.1 -0.56,-0.1 z m 5.379995,3.8 q 0,-0.29 0.2,-0.49 0.21,-0.21 0.5,-0.21 0.29,0 0.49,0.21 0.21,0.2 0.21,0.49 0,0.29 -0.21,0.5 -0.2,0.2 -0.49,0.2 -0.29,0 -0.5,-0.2 -0.2,-0.21 -0.2,-0.5 z m 8.469995,-0.2 h -0.12 q -0.12,0.23 -0.31,0.4 -0.18,0.17 -0.4,0.28 -0.21,0.11 -0.45,0.16 -0.24,0.06 -0.46,0.06 -0.5,0 -0.93,-0.17 -0.43,-0.17 -0.76,-0.49 -0.32,-0.32 -0.51,-0.79 -0.18,-0.48 -0.18,-1.09 v -0.16 q 0,-0.6 0.19,-1.07 0.19,-0.48 0.51,-0.8 0.32,-0.33 0.75,-0.5 0.43,-0.17 0.91,-0.17 0.51,0 0.95,0.23 0.45,0.22 0.69,0.69 h 0.12 v -2.82 h 0.78 v 7 h -0.78 z m -1.66,0.16 q 0.35,0 0.65,-0.13 0.3,-0.13 0.52,-0.37 0.23,-0.24 0.36,-0.57 0.13,-0.34 0.13,-0.75 v -0.12 q 0,-0.4 -0.13,-0.73 -0.13,-0.34 -0.36,-0.58 -0.22,-0.24 -0.53,-0.37 -0.3,-0.14 -0.64,-0.14 -0.35,0 -0.66,0.13 -0.3,0.13 -0.53,0.37 -0.22,0.24 -0.35,0.57 -0.12,0.33 -0.12,0.73 v 0.16 q 0,0.42 0.12,0.75 0.13,0.33 0.35,0.57 0.23,0.23 0.53,0.36 0.3,0.12 0.66,0.12 z m 4.509996,-1.64 q 0.03,0.74 0.46,1.19 0.43,0.45 1.2,0.45 0.35,0 0.61,-0.08 0.26,-0.08 0.44,-0.22 0.19,-0.14 0.3,-0.32 0.12,-0.19 0.19,-0.4 l 0.74,0.2 q -0.21,0.69 -0.78,1.13 -0.56,0.43 -1.52,0.43 -0.53,0 -0.98,-0.18 -0.44,-0.19 -0.76,-0.53 -0.32,-0.34 -0.5,-0.81 -0.18,-0.47 -0.18,-1.04 v -0.24 q 0,-0.52 0.18,-0.97 0.19,-0.45 0.52,-0.77 0.33,-0.33 0.77,-0.51 0.45,-0.19 0.97,-0.19 0.61,0 1.05,0.23 0.45,0.22 0.73,0.55 0.29,0.33 0.42,0.72 0.14,0.39 0.14,0.72 v 0.64 z m 1.66,-2.12 q -0.33,0 -0.62,0.11 -0.28,0.1 -0.5,0.29 -0.21,0.19 -0.35,0.45 -0.13,0.25 -0.17,0.55 h 3.2 q -0.02,-0.32 -0.16,-0.58 -0.13,-0.26 -0.35,-0.44 -0.21,-0.18 -0.49,-0.28 -0.27,-0.1 -0.56,-0.1 z"
       id="text2"
       aria-label="lackhove.de" />
    <path
       style="font-size:10px;line-height:125%;font-family:'Space Mono';-inkscape-font-specification:'Space Mono';text-align:center;letter-spacing:0px;word-spacing:0px;text-anchor:middle;fill:#00dae5;fill-opacity:0.702447;stroke-width:0.264583px"
       d="m 3.9047955,55.905317 h 1.8 v -5.56 h -1.74 v -0.72 h 2.52 v 6.28 h 1.8 v 0.72 h -4.38 z m 9.7199955,-0.12 h -0.12 q -0.24,0.5 -0.67,0.74 -0.42,0.24 -0.89,0.24 -0.49,0 -0.91,-0.16 -0.42,-0.17 -0.74,-0.49 -0.3099997,-0.33 -0.4899997,-0.8 -0.1799999,-0.47 -0.1799999,-1.09 v -0.16 q 0,-0.61 0.1799999,-1.08 0.18,-0.47 0.4899997,-0.79 0.32,-0.33 0.74,-0.5 0.42,-0.17 0.89,-0.17 0.51,0 0.92,0.23 0.42,0.22 0.66,0.69 h 0.12 v -0.78 h 0.78 v 3.94 q 0,0.3 0.27,0.3 h 0.25 v 0.72 h -0.53 q -0.34,0 -0.56,-0.22 -0.21,-0.22 -0.21,-0.56 z m -1.6,0.24 q 0.35,0 0.64,-0.13 0.3,-0.13 0.51,-0.37 0.21,-0.24 0.33,-0.57 0.12,-0.34 0.12,-0.75 v -0.12 q 0,-0.4 -0.12,-0.73 -0.12,-0.34 -0.34,-0.58 -0.21,-0.24 -0.51,-0.37 -0.29,-0.14 -0.63,-0.14 -0.35,0 -0.64,0.13 -0.29,0.13 -0.51,0.37 -0.21,0.23 -0.33,0.57 -0.12,0.33 -0.12,0.73 v 0.16 q 0,0.85 0.44,1.33 0.45,0.47 1.16,0.47 z m 8.759995,-1.16 q -0.08,0.41 -0.28,0.76 -0.19,0.35 -0.49,0.61 -0.3,0.25 -0.7,0.39 -0.4,0.14 -0.89,0.14 -0.52,0 -0.99,-0.17 -0.46,-0.17 -0.81,-0.49 -0.35,-0.33 -0.56,-0.8 -0.2,-0.47 -0.2,-1.08 v -0.12 q 0,-0.6 0.2,-1.08 0.21,-0.48 0.56,-0.81 0.35,-0.33 0.81,-0.51 0.47,-0.18 0.99,-0.18 0.47,0 0.87,0.14 0.4,0.14 0.7,0.4 0.31,0.25 0.5,0.6 0.2,0.35 0.27,0.76 l -0.78,0.18 q -0.03,-0.26 -0.15,-0.5 -0.11,-0.25 -0.31,-0.43 -0.19,-0.19 -0.47,-0.3 -0.28,-0.11 -0.65,-0.11 -0.36,0 -0.68,0.14 -0.31,0.13 -0.55,0.38 -0.24,0.24 -0.38,0.58 -0.13,0.34 -0.13,0.74 v 0.12 q 0,0.42 0.13,0.76 0.14,0.33 0.38,0.56 0.24,0.23 0.56,0.36 0.32,0.12 0.69,0.12 0.37,0 0.64,-0.11 0.28,-0.12 0.47,-0.3 0.2,-0.19 0.31,-0.43 0.12,-0.24 0.16,-0.5 z m 2.759995,-1.14 h 0.17 l 1.89,-2.06 h 0.96 v 0.06 l -2.06,2.27 v 0.18 l 2.3,2.39 v 0.06 h -0.96 l -2.11,-2.18 h -0.19 v 2.18 h -0.78 v -7 h 0.78 z m 5.619995,2.9 h -0.78 v -7 h 0.78 v 2.94 h 0.12 q 0.23,-0.48 0.64,-0.76 0.42,-0.28 1.02,-0.28 0.81,0 1.31,0.54 0.51,0.53 0.51,1.6 v 2.96 h -0.78 v -2.8 q 0,-0.78 -0.35,-1.17 -0.35,-0.39 -0.95,-0.39 -0.71,0 -1.12,0.49 -0.4,0.48 -0.4,1.29 z m 10.019995,-2.42 q 0,0.62 -0.21,1.1 -0.2,0.47 -0.54,0.8 -0.34,0.32 -0.8,0.49 -0.45,0.17 -0.94,0.17 -0.5,0 -0.95,-0.17 -0.45,-0.17 -0.79,-0.49 -0.34,-0.33 -0.55,-0.8 -0.2,-0.48 -0.2,-1.1 v -0.12 q 0,-0.61 0.2,-1.08 0.21,-0.48 0.55,-0.81 0.35,-0.33 0.8,-0.5 0.45,-0.17 0.94,-0.17 0.49,0 0.94,0.17 0.45,0.17 0.79,0.5 0.35,0.33 0.55,0.81 0.21,0.47 0.21,1.08 z m -2.49,1.82 q 0.36,0 0.66,-0.12 0.31,-0.13 0.54,-0.37 0.23,-0.24 0.36,-0.57 0.13,-0.34 0.13,-0.76 v -0.12 q 0,-0.4 -0.13,-0.73 -0.13,-0.34 -0.36,-0.58 -0.23,-0.24 -0.54,-0.37 -0.31,-0.14 -0.66,-0.14 -0.35,0 -0.66,0.14 -0.31,0.13 -0.54,0.37 -0.23,0.24 -0.36,0.58 -0.13,0.33 -0.13,0.73 v 0.12 q 0,0.42 0.13,0.76 0.13,0.33 0.36,0.57 0.23,0.24 0.53,0.37 0.31,0.12 0.67,0.12 z m 6.879995,0.6 h -1.54 l -1.73,-4.96 h 0.92 l 1.52,4.6 h 0.12 l 1.52,-4.6 h 0.92 z m 3.739995,-2.24 q 0.03,0.74 0.46,1.19 0.43,0.45 1.2,0.45 0.35,0 0.61,-0.08 0.26,-0.08 0.44,-0.22 0.19,-0.14 0.3,-0.32 0.12,-0.19 0.19,-0.4 l 0.74,0.2 q -0.21,0.69 -0.78,1.13 -0.56,0.43 -1.52,0.43 -0.53,0 -0.98,-0.18 -0.44,-0.19 -0.76,-0.53 -0.32,-0.34 -0.5,-0.81 -0.18,-0.47 -0.18,-1.04 v -0.24 q 0,-0.52 0.18,-0.97 0.19,-0.45 0.52,-0.77 0.33,-0.33 0.77,-0.51 0.45,-0.19 0.97,-0.19 0.61,0 1.05,0.23 0.45,0.22 0.73,0.55 0.29,0.33 0.42,0.72 0.14,0.39 0.14,0.72 v 0.64 z m 1.66,-2.12 q -0.33,0 -0.62,0.11 -0.28,0.1 -0.5,0.29 -0.21,0.19 -0.35,0.45 -0.13,0.25 -0.17,0.55 h 3.2 q -0.02,-0.32 -0.16,-0.58 -0.13,-0.26 -0.35,-0.44 -0.21,-0.18 -0.49,-0.28 -0.27,-0.1 -0.56,-0.1 z m 5.379995,3.8 q 0,-0.29 0.2,-0.49 0.21,-0.21 0.5,-0.21 0.29,0 0.49,0.21 0.21,0.2 0.21,0.49 0,0.29 -0.21,0.5 -0.2,0.2 -0.49,0.2 -0.29,0 -0.5,-0.2 -0.2,-0.21 -0.2,-0.5 z m 8.469995,-0.2 h -0.12 q -0.12,0.23 -0.31,0.4 -0.18,0.17 -0.4,0.28 -0.21,0.11 -0.45,0.16 -0.24,0.06 -0.46,0.06 -0.5,0 -0.93,-0.17 -0.43,-0.17 -0.76,-0.49 -0.32,-0.32 -0.51,-0.79 -0.18,-0.48 -0.18,-1.09 v -0.16 q 0,-0.6 0.19,-1.07 0.19,-0.48 0.51,-0.8 0.32,-0.33 0.75,-0.5 0.43,-0.17 0.91,-0.17 0.51,0 0.95,0.23 0.45,0.22 0.69,0.69 h 0.12 v -2.82 h 0.78 v 7 h -0.78 z m -1.66,0.16 q 0.35,0 0.65,-0.13 0.3,-0.13 0.52,-0.37 0.23,-0.24 0.36,-0.57 0.13,-0.34 0.13,-0.75 v -0.12 q 0,-0.4 -0.13,-0.73 -0.13,-0.34 -0.36,-0.58 -0.22,-0.24 -0.53,-0.37 -0.3,-0.14 -0.64,-0.14 -0.35,0 -0.66,0.13 -0.3,0.13 -0.53,0.37 -0.22,0.24 -0.35,0.57 -0.12,0.33 -0.12,0.73 v 0.16 q 0,0.42 0.12,0.75 0.13,0.33 0.35,0.57 0.23,0.23 0.53,0.36 0.3,0.12 0.66,0.12 z m 4.509996,-1.64 q 0.03,0.74 0.46,1.19 0.43,0.45 1.2,0.45 0.35,0 0.61,-0.08 0.26,-0.08 0.44,-0.22 0.19,-0.14 0.3,-0.32 0.12,-0.19 0.19,-0.4 l 0.74,0.2 q -0.21,0.69 -0.78,1.13 -0.56,0.43 -1.52,0.43 -0.53,0 -0.98,-0.18 -0.44,-0.19 -0.76,-0.53 -0.32,-0.34 -0.5,-0.81 -0.18,-0.47 -0.18,-1.04 v -0.24 q 0,-0.52 0.18,-0.97 0.19,-0.45 0.52,-0.77 0.33,-0.33 0.77,-0.51 0.45,-0.19 0.97,-0.19 0.61,0 1.05,0.23 0.45,0.22 0.73,0.55 0.29,0.33 0.42,0.72 0.14,0.39 0.14,0.72 v 0.64 z m 1.66,-2.12 q -0.33,0 -0.62,0.11 -0.28,0.1 -0.5,0.29 -0.21,0.19 -0.35,0.45 -0.13,0.25 -0.17,0.55 h 3.2 q -0.02,-0.32 -0.16,-0.58 -0.13,-0.26 -0.35,-0.44 -0.21,-0.18 -0.49,-0.28 -0.27,-0.1 -0.56,-0.1 z"
       id="text2-9"
       aria-label="lackhove.de" />
    <path
       style="font-size:10px;line-height:125%;font-family:'Space Mono';-inkscape-font-specification:'Space Mono';text-align:center;letter-spacing:0px;word-spacing:0px;text-anchor:middle;stroke-width:0.264583px"
       d="m 4.3018428,55.519739 h 1.8 v -5.56 h -1.74 v -0.72 h 2.52 v 6.28 H 8.681843 v 0.72 H 4.3018428 Z m 9.7199952,-0.12 h -0.12 q -0.24,0.5 -0.67,0.740001 -0.42,0.24 -0.89,0.24 -0.49,0 -0.91,-0.16 -0.42,-0.17 -0.74,-0.49 -0.31,-0.33 -0.49,-0.8 -0.179999,-0.47 -0.179999,-1.09 v -0.16 q 0,-0.61 0.179999,-1.08 0.18,-0.469999 0.49,-0.789999 0.32,-0.33 0.74,-0.5 0.42,-0.170001 0.89,-0.170001 0.51,0 0.92,0.23 0.42,0.22 0.66,0.69 h 0.12 v -0.78 h 0.78 v 3.939999 q 0,0.3 0.27,0.3 h 0.25 v 0.72 h -0.53 q -0.34,0 -0.56,-0.22 -0.21,-0.22 -0.21,-0.56 z m -1.6,0.240001 q 0.35,0 0.64,-0.130001 0.3,-0.13 0.51,-0.369999 0.21,-0.240001 0.33,-0.57 0.12,-0.340001 0.12,-0.75 v -0.12 q 0,-0.4 -0.12,-0.73 -0.12,-0.34 -0.34,-0.58 -0.21,-0.24 -0.51,-0.369999 -0.29,-0.14 -0.63,-0.14 -0.35,0 -0.64,0.13 -0.29,0.13 -0.51,0.37 -0.21,0.229999 -0.33,0.57 -0.12,0.329999 -0.12,0.729999 v 0.16 q 0,0.85 0.44,1.33 0.45,0.47 1.16,0.47 z m 8.759995,-1.16 q -0.08,0.41 -0.28,0.76 -0.19,0.35 -0.49,0.61 -0.3,0.25 -0.7,0.39 -0.4,0.14 -0.89,0.14 -0.52,0 -0.99,-0.17 -0.46,-0.17 -0.81,-0.490001 -0.35,-0.329999 -0.56,-0.799999 -0.2,-0.47 -0.2,-1.08 v -0.12 q 0,-0.6 0.2,-1.08 0.21,-0.479999 0.56,-0.81 0.35,-0.33 0.81,-0.51 0.47,-0.18 0.99,-0.18 0.47,0 0.87,0.14 0.4,0.140001 0.7,0.4 0.31,0.25 0.5,0.6 0.2,0.350001 0.27,0.76 l -0.78,0.18 q -0.03,-0.26 -0.15,-0.5 -0.11,-0.25 -0.31,-0.43 -0.19,-0.19 -0.47,-0.299999 -0.28,-0.11 -0.65,-0.11 -0.36,0 -0.68,0.14 -0.31,0.13 -0.55,0.38 -0.24,0.24 -0.38,0.58 -0.13,0.34 -0.13,0.74 v 0.12 q 0,0.42 0.13,0.759999 0.14,0.33 0.38,0.560001 0.24,0.229999 0.56,0.36 0.32,0.119999 0.69,0.119999 0.37,0 0.64,-0.11 0.28,-0.119999 0.47,-0.299999 0.2,-0.19 0.31,-0.43 0.12,-0.24 0.16,-0.5 z m 2.759995,-1.14 h 0.17 l 1.89,-2.06 h 0.96 v 0.06 l -2.06,2.27 v 0.18 l 2.3,2.39 v 0.06 h -0.96 l -2.11,-2.18 h -0.19 v 2.18 h -0.78 v -7 h 0.78 z m 5.619995,2.9 h -0.78 v -7 h 0.78 v 2.94 h 0.12 q 0.23,-0.48 0.64,-0.76 0.42,-0.28 1.02,-0.28 0.81,0 1.31,0.54 0.51,0.53 0.51,1.6 v 2.96 h -0.78 v -2.8 q 0,-0.78 -0.35,-1.17 -0.35,-0.39 -0.95,-0.39 -0.71,0 -1.12,0.49 -0.4,0.48 -0.4,1.29 z m 10.019995,-2.42 q 0,0.619999 -0.21,1.1 -0.2,0.47 -0.54,0.799999 -0.34,0.320001 -0.8,0.490001 -0.45,0.17 -0.94,0.17 -0.5,0 -0.95,-0.17 -0.45,-0.17 -0.79,-0.490001 -0.34,-0.329999 -0.55,-0.799999 -0.2,-0.48 -0.2,-1.1 v -0.12 q 0,-0.61 0.2,-1.08 0.21,-0.48 0.55,-0.81 0.35,-0.33 0.8,-0.5 0.45,-0.17 0.94,-0.17 0.49,0 0.94,0.17 0.45,0.17 0.79,0.5 0.35,0.33 0.55,0.81 0.21,0.47 0.21,1.08 z m -2.49,1.82 q 0.36,0 0.66,-0.12 0.31,-0.13 0.54,-0.37 0.23,-0.24 0.36,-0.57 0.13,-0.34 0.13,-0.76 v -0.119999 q 0,-0.4 -0.13,-0.73 -0.13,-0.34 -0.36,-0.58 -0.23,-0.24 -0.54,-0.37 -0.31,-0.14 -0.66,-0.14 -0.35,0 -0.66,0.14 -0.31,0.13 -0.54,0.37 -0.23,0.24 -0.36,0.58 -0.13,0.33 -0.13,0.73 v 0.119999 q 0,0.420001 0.13,0.76 0.13,0.33 0.36,0.57 0.23,0.24 0.53,0.37 0.31,0.12 0.67,0.12 z m 6.879995,0.6 h -1.54 l -1.73,-4.96 h 0.92 l 1.52,4.6 h 0.12 l 1.52,-4.6 h 0.92 z m 3.739995,-2.24 q 0.03,0.74 0.46,1.189999 0.43,0.450001 1.2,0.450001 0.35,0 0.61,-0.08 0.26,-0.08 0.44,-0.22 0.19,-0.14 0.3,-0.32 0.12,-0.19 0.19,-0.4 l 0.74,0.2 q -0.21,0.69 -0.78,1.130001 -0.56,0.43 -1.52,0.43 -0.53,0 -0.98,-0.18 -0.44,-0.19 -0.76,-0.53 -0.32,-0.340001 -0.5,-0.810001 -0.18,-0.47 -0.18,-1.04 v -0.24 q 0,-0.52 0.18,-0.97 0.19,-0.45 0.52,-0.77 0.33,-0.33 0.77,-0.51 0.45,-0.19 0.97,-0.19 0.61,0 1.05,0.23 0.45,0.22 0.73,0.55 0.29,0.33 0.42,0.72 0.14,0.39 0.14,0.72 v 0.64 z m 1.66,-2.12 q -0.33,0 -0.62,0.11 -0.28,0.1 -0.5,0.29 -0.21,0.189999 -0.35,0.45 -0.13,0.25 -0.17,0.55 h 3.2 q -0.02,-0.32 -0.16,-0.58 -0.13,-0.26 -0.35,-0.44 -0.21,-0.18 -0.49,-0.28 -0.27,-0.1 -0.56,-0.1 z m 5.379995,3.8 q 0,-0.29 0.2,-0.490001 0.21,-0.21 0.5,-0.21 0.29,0 0.49,0.21 0.21,0.200001 0.21,0.490001 0,0.289999 -0.21,0.5 -0.2,0.2 -0.49,0.2 -0.29,0 -0.5,-0.2 -0.2,-0.210001 -0.2,-0.5 z m 8.469995,-0.200001 h -0.12 q -0.12,0.23 -0.31,0.4 -0.18,0.17 -0.4,0.28 -0.21,0.11 -0.45,0.16 -0.24,0.06 -0.46,0.06 -0.5,0 -0.93,-0.17 -0.43,-0.17 -0.76,-0.49 -0.32,-0.32 -0.51,-0.79 -0.18,-0.48 -0.18,-1.09 v -0.16 q 0,-0.6 0.19,-1.07 0.19,-0.48 0.51,-0.8 0.32,-0.33 0.75,-0.5 0.43,-0.17 0.91,-0.17 0.51,0 0.95,0.23 0.45,0.22 0.69,0.69 h 0.12 v -2.82 h 0.78 v 7 h -0.78 z m -1.66,0.16 q 0.35,0 0.65,-0.13 0.3,-0.13 0.52,-0.37 0.23,-0.24 0.36,-0.57 0.13,-0.34 0.13,-0.75 v -0.12 q 0,-0.4 -0.13,-0.73 -0.13,-0.34 -0.36,-0.579999 -0.22,-0.240001 -0.53,-0.37 -0.3,-0.14 -0.64,-0.14 -0.35,0 -0.66,0.13 -0.3,0.13 -0.53,0.37 -0.22,0.24 -0.35,0.57 -0.12,0.33 -0.12,0.73 v 0.159999 q 0,0.42 0.12,0.75 0.13,0.33 0.35,0.57 0.23,0.23 0.53,0.36 0.3,0.12 0.66,0.12 z m 4.509996,-1.64 q 0.03,0.74 0.46,1.19 0.43,0.45 1.2,0.45 0.35,0 0.61,-0.08 0.26,-0.08 0.44,-0.22 0.19,-0.14 0.3,-0.32 0.12,-0.19 0.19,-0.4 l 0.74,0.200001 q -0.21,0.689999 -0.78,1.13 -0.56,0.43 -1.52,0.43 -0.53,0 -0.98,-0.18 -0.44,-0.19 -0.76,-0.53 -0.32,-0.340001 -0.5,-0.81 -0.18,-0.47 -0.18,-1.04 v -0.240001 q 0,-0.52 0.18,-0.969999 0.19,-0.450001 0.52,-0.770001 0.33,-0.33 0.77,-0.51 0.45,-0.189999 0.97,-0.189999 0.61,0 1.05,0.229999 0.45,0.22 0.73,0.55 0.29,0.33 0.42,0.72 0.14,0.39 0.14,0.72 v 0.64 z m 1.66,-2.12 q -0.33,0 -0.62,0.11 -0.28,0.1 -0.5,0.29 -0.21,0.19 -0.35,0.45 -0.13,0.25 -0.17,0.55 h 3.2 q -0.02,-0.32 -0.16,-0.58 -0.13,-0.26 -0.35,-0.44 -0.21,-0.18 -0.49,-0.28 -0.27,-0.1 -0.56,-0.1 z"
       id="text2-7"
       aria-label="lackhove.de" />
  </g>
</svg>
